<svg xmlns="http://www.w3.org/2000/svg" viewBox="0 0 1160 380" font-family="'Noto Sans', sans-serif">
  <rect x="0" y="0" width="1160" height="380" rx="14" fill="#101314" stroke="#2a3a40"/>

  <!-- Presentation: many fixed slides -->
  <text x="60" y="56" fill="#c0f1ff" font-size="26" font-weight="700">Presentation</text>
  <text x="60" y="84" fill="#7f9aa3" font-size="17">many discrete 1920×1080 slides</text>

  <g stroke="#7fd9ff" stroke-width="2" fill="#16201f">
    <rect x="60"  y="120" width="200" height="113" rx="8"/>
    <rect x="88"  y="148" width="200" height="113" rx="8" opacity="0.85"/>
    <rect x="116" y="176" width="200" height="113" rx="8" opacity="0.7"/>
  </g>
  <text x="150" y="332" fill="#7f9aa3" font-size="15">one at a time →</text>

  <!-- Arrow -->
  <text x="556" y="210" fill="#c0f1ff" font-size="48">→</text>

  <!-- Text: one long page -->
  <text x="700" y="56" fill="#c0f1ff" font-size="26" font-weight="700">Text</text>
  <text x="700" y="84" fill="#7f9aa3" font-size="17">one page, 1920 wide, grows down</text>

  <rect x="760" y="110" width="220" height="250" rx="8" stroke="#7fd9ff" stroke-width="2" fill="#16201f"/>
  <g stroke="#3f5a60" stroke-width="6" stroke-linecap="round">
    <line x1="788" y1="146" x2="952" y2="146"/>
    <line x1="788" y1="176" x2="952" y2="176"/>
    <line x1="788" y1="206" x2="922" y2="206"/>
    <line x1="788" y1="236" x2="952" y2="236"/>
    <line x1="788" y1="266" x2="952" y2="266"/>
    <line x1="788" y1="296" x2="900" y2="296"/>
    <line x1="788" y1="326" x2="940" y2="326"/>
  </g>
  <text x="1010" y="240" fill="#7f9aa3" font-size="15" transform="rotate(90 1010 240)">scroll ↓</text>
</svg>
